<svg xmlns="http://www.w3.org/2000/svg" viewBox="0 0 24 24"><defs><style>.a{fill:none;stroke:#000;stroke-miterlimit:10;}</style></defs><title>icon_pm</title><path d="M12.5,5A2.5,2.5,0,1,1,10,7.5,2.5,2.5,0,0,1,12.5,5m0-1A3.5,3.5,0,1,0,16,7.5,3.5,3.5,0,0,0,12.5,4Z"/><polygon points="13 1 12 1 12 3 13 3 13 1 13 1"/><polygon points="13 12 12 12 12 14 13 14 13 12 13 12"/><polygon points="16.74 2.55 15.33 3.96 16.04 4.67 17.45 3.26 16.74 2.55 16.74 2.55"/><polygon points="8.96 10.33 7.55 11.74 8.26 12.45 9.67 11.04 8.96 10.33 8.96 10.33"/><polygon points="8 7 6 7 6 8 8 8 8 7 8 7"/><polygon points="19 7 17 7 17 8 19 8 19 7 19 7"/><polygon points="8.26 2.55 7.55 3.26 8.96 4.67 9.67 3.96 8.26 2.55 8.26 2.55"/><polygon points="16.04 10.33 15.33 11.04 16.74 12.45 17.45 11.74 16.04 10.33 16.04 10.33"/><polyline class="a" points="9.5 19.5 12.5 22.5 15.5 19.5"/><line class="a" x1="12.5" y1="16" x2="12.5" y2="22"/></svg>