<svg xmlns="http://www.w3.org/2000/svg" viewBox="0 0 24 24"><defs><style>.a{fill:none;stroke:#000;stroke-miterlimit:10;}</style></defs><title>icon_siteprv</title><polygon points="15.8 17.4 14.2 18.6 12 15.6 9.8 18.6 8.2 17.4 10.4 14.6 7 13.4 7.6 11.6 11 12.6 11 9 13 9 13 12.6 16.4 11.4 17 13.4 13.6 14.6 15.8 17.4"/><path d="M16.89,9A7,7,0,1,1,7.11,9H5.76A8,8,0,1,0,18.24,9Z"/><path d="M19,3V7H5V3H19m1-1H4V8H20V2Z"/><line class="a" x1="4.5" y1="2.5" x2="19.5" y2="7.5"/><line class="a" x1="19.5" y1="2.5" x2="4.5" y2="7.5"/></svg>