<svg xmlns="http://www.w3.org/2000/svg" viewBox="0 0 24 24"><title>icon_bed</title><path d="M20,3v7.24l.11.21L22,14.24V19H2V14.24l1.89-3.79L4,10.24V3H20m1-1H3v8L1,14v6H23V14l-2-4V2Z"/><rect x="4" y="19" width="1" height="4"/><rect x="1" y="14" width="22" height="1"/><rect x="3" y="9" width="3" height="1"/><rect x="10" y="9" width="4" height="1"/><rect x="18" y="9" width="3" height="1"/><rect x="19" y="19" width="1" height="4"/><path d="M10,8v2H6V8h4m1-1H5v4h6V7Z"/><path d="M18,8v2H14V8h4m1-1H13v4h6V7Z"/></svg>