<svg xmlns="http://www.w3.org/2000/svg" viewBox="0 0 24 24"><defs><style>.a{fill:none;stroke:#000;stroke-miterlimit:10;}</style></defs><title>icon_universalprv</title><rect x="5" y="11" width="14" height="1"/><rect x="5" y="16" width="14" height="1"/><path d="M16.89,9A7,7,0,1,1,7.11,9H5.76A8,8,0,1,0,18.24,9Z"/><path d="M13.29,9A16.08,16.08,0,0,1,14,14c0,4.55-1.42,7-2,7s-2-2.45-2-7a16.08,16.08,0,0,1,.71-5H9.66A17.87,17.87,0,0,0,9,14c0,4.42,1.34,8,3,8s3-3.58,3-8a17.87,17.87,0,0,0-.66-5Z"/><path d="M19,3V7H5V3H19m1-1H4V8H20V2Z"/><line class="a" x1="4.5" y1="2.5" x2="19.5" y2="7.5"/><line class="a" x1="19.5" y1="2.5" x2="4.5" y2="7.5"/></svg>