<svg xmlns="http://www.w3.org/2000/svg" viewBox="0 0 24 24"><defs><style>.a{fill:none;stroke:#000;stroke-miterlimit:10;}</style></defs><title>icon_forest</title><polyline class="a" points="3.5 8.5 6.5 5.5 9.5 8.5"/><polyline class="a" points="3.5 12.5 6.5 9.5 9.5 12.5"/><polyline class="a" points="3.5 16.5 6.5 13.5 9.5 16.5"/><line class="a" x1="6.5" y1="19.5" x2="6.5" y2="5.5"/><polyline class="a" points="9.5 6.5 12.5 3.5 15.5 6.5"/><polyline class="a" points="9.5 10.5 12.5 7.5 15.5 10.5"/><polyline class="a" points="9.5 14.5 12.5 11.5 15.5 14.5"/><line class="a" x1="12.5" y1="17.5" x2="12.5" y2="3.5"/><polyline class="a" points="15.5 8.5 18.5 5.5 21.5 8.5"/><polyline class="a" points="15.5 12.5 18.5 9.5 21.5 12.5"/><polyline class="a" points="15.5 16.5 18.5 13.5 21.5 16.5"/><line class="a" x1="18.5" y1="19.5" x2="18.5" y2="5.5"/></svg>