<svg xmlns="http://www.w3.org/2000/svg" viewBox="0 0 24 24"><defs><style>.a{fill:none;stroke:#000;stroke-miterlimit:10;}</style></defs><title>icon_universalall</title><path d="M12,4a7,7,0,1,1-7,7,7,7,0,0,1,7-7m0-1a8,8,0,1,0,8,8,8,8,0,0,0-8-8Z"/><line class="a" x1="5" y1="8.5" x2="19" y2="8.5"/><line class="a" x1="5" y1="13.5" x2="19" y2="13.5"/><path d="M12,4c.58,0,2,2.45,2,7s-1.42,7-2,7-2-2.45-2-7,1.42-7,2-7m0-1c-1.66,0-3,3.58-3,8s1.34,8,3,8,3-3.58,3-8-1.34-8-3-8Z"/><rect x="4" y="20" width="16" height="1"/></svg>