<svg xmlns="http://www.w3.org/2000/svg" viewBox="0 0 24 24"><title>icon_dawn</title><polygon points="12 7 11 7 11 9 12 9 12 7 12 7"/><polygon points="15.74 8.55 14.33 9.96 15.04 10.67 16.45 9.26 15.74 8.55 15.74 8.55"/><polygon points="7 13 5 13 5 14 7 14 7 13 7 13"/><polygon points="18 13 16 13 16 14 18 14 18 13 18 13"/><polygon points="7.26 8.55 6.55 9.26 7.96 10.67 8.67 9.96 7.26 8.55 7.26 8.55"/><path d="M9.51,15a2.5,2.5,0,1,1,4,0h1.16A3.45,3.45,0,0,0,15,13.5a3.5,3.5,0,0,0-7,0A3.45,3.45,0,0,0,8.35,15Z"/><rect x="3" y="16" width="17" height="1"/></svg>