<svg xmlns="http://www.w3.org/2000/svg" viewBox="0 0 24 24"><title>icon_sofa</title><path d="M4,10a1,1,0,0,1,1,1v8H4a1,1,0,0,1-1-1V11a1,1,0,0,1,1-1M4,9a2,2,0,0,0-2,2v7a2,2,0,0,0,2,2H6V11A2,2,0,0,0,4,9Z"/><path d="M20,10a1,1,0,0,1,1,1v7a1,1,0,0,1-1,1H19V11a1,1,0,0,1,1-1m0-1a2,2,0,0,0-2,2v9h2a2,2,0,0,0,2-2V11a2,2,0,0,0-2-2Z"/><path d="M18,4a1,1,0,0,1,1,1v5h1V5a2,2,0,0,0-2-2H6A2,2,0,0,0,4,5v5H5V5A1,1,0,0,1,6,4H18"/><rect x="5" y="19" width="1" height="3"/><rect x="18" y="19" width="1" height="3"/><rect x="5" y="19" width="14" height="1"/><rect x="5" y="13" width="14" height="1"/><rect x="5" y="15" width="14" height="1"/></svg>