<svg xmlns="http://www.w3.org/2000/svg" viewBox="0 0 24 24"><defs><style>.a{fill:none;stroke:#000;stroke-miterlimit:10;}</style></defs><title>icon_am</title><path d="M11.5,14A2.5,2.5,0,1,1,9,16.5,2.5,2.5,0,0,1,11.5,14m0-1A3.5,3.5,0,1,0,15,16.5,3.5,3.5,0,0,0,11.5,13Z"/><polygon points="12 10 11 10 11 12 12 12 12 10 12 10"/><polygon points="12 21 11 21 11 23 12 23 12 21 12 21"/><polygon points="15.74 11.55 14.33 12.96 15.04 13.67 16.45 12.26 15.74 11.55 15.74 11.55"/><polygon points="7.96 19.33 6.55 20.74 7.26 21.45 8.67 20.04 7.96 19.33 7.96 19.33"/><polygon points="7 16 5 16 5 17 7 17 7 16 7 16"/><polygon points="18 16 16 16 16 17 18 17 18 16 18 16"/><polygon points="7.26 11.55 6.55 12.26 7.96 13.67 8.67 12.96 7.26 11.55 7.26 11.55"/><polygon points="15.04 19.33 14.33 20.04 15.74 21.45 16.45 20.74 15.04 19.33 15.04 19.33"/><polyline class="a" points="8.5 4.5 11.5 1.5 14.5 4.5"/><line class="a" x1="11.5" y1="8" x2="11.5" y2="2"/></svg>