<svg id="icon_main" xmlns="http://www.w3.org/2000/svg" viewBox="0 0 56 56"><defs><style>.cls-1{fill:#fff;}</style></defs><title>画板 1</title><g id="two_bans" data-name="two bans"><g id="one_ban" data-name="one ban"><g id="Oval_137" data-name="Oval 137"><path id="path0_fill" data-name="path0 fill" class="cls-1" d="M28.56,26.08a2,2,0,0,1,1.37,1.38C32.86,25.79,35,20.4,35,14c0-7.73-3.13-14-7-14-2.65,0-4.95,2.94-6.14,7.27A21.69,21.69,0,0,1,23.46,9C24.25,4.85,26,2,28,2c2.76,0,5,5.37,5,12,0,6.08-1.88,11.1-4.33,11.89A1.18,1.18,0,0,1,28.56,26.08Z"/></g><g id="Oval_163" data-name="Oval 163"><path id="path1_fill" data-name="path1 fill" class="cls-1" d="M29.15,24.53C30.8,23.17,32,19,32,14c0-6.08-1.79-11-4-11a.5.5,0,0,0,0,1c1.66,0,3,4.48,3,10,0,3.94-.68,7.35-1.68,9A7.43,7.43,0,0,1,29.15,24.53Z"/></g></g><g id="one_ban-2" data-name="one ban"><g id="Oval_137-2" data-name="Oval 137"><path id="path2_fill" data-name="path2 fill" class="cls-1" d="M26.07,28.54a2,2,0,0,0,1.37,1.38,1.18,1.18,0,0,0-.11.19C24.88,30.9,23,35.92,23,42c0,6.63,2.24,12,5,12,2,0,3.75-2.85,4.54-7a21.69,21.69,0,0,0,1.6,1.69C33,53.06,30.65,56,28,56c-3.87,0-7-6.27-7-14C21,35.6,23.14,30.21,26.07,28.54Z"/></g><g id="Oval_163-2" data-name="Oval 163"><path id="path3_fill" data-name="path3 fill" class="cls-1" d="M26.85,31.47C25.2,32.83,24,37,24,42c0,6.08,1.79,11,4,11a.5.5,0,0,0,0-1c-1.66,0-3-4.48-3-10,0-3.94.68-7.35,1.68-9A7.43,7.43,0,0,1,26.85,31.47Z"/></g></g></g><g id="two_bans-2" data-name="two bans"><g id="one_ban-3" data-name="one ban"><g id="Oval_137-3" data-name="Oval 137"><path id="path4_fill" data-name="path4 fill" class="cls-1" d="M29.4,26.57c1.7-2.91.86-8.66-2.34-14.19C23.2,5.68,17.35,1.82,14,3.75c-2.29,1.32-2.82,5-1.68,9.37a19.27,19.27,0,0,1,2.23.67c-1.37-4-1.29-7.3.45-8.31,2.39-1.38,7,2.16,10.33,7.9,3,5.26,3.92,10.55,2.2,12.46v.22A2,2,0,0,1,29.4,26.57Z"/></g><g id="Oval_163-3" data-name="Oval 163"><path id="path5_fill" data-name="path5 fill" class="cls-1" d="M23.6,14.38c-2.76-4.79-6.17-8-7.6-7.16A.51.51,0,0,1,15.32,7a.49.49,0,0,1,.18-.68c1.91-1.11,5.93,2.26,9,7.53C27,18.18,28,22.42,27.27,24.42A8.42,8.42,0,0,0,26.63,23C26.68,21.09,25.57,17.79,23.6,14.38Z"/></g></g><g id="one_ban-4" data-name="one ban"><g id="Oval_137-4" data-name="Oval 137"><path id="path6_fill" data-name="path6 fill" class="cls-1" d="M26.6,29.43a2,2,0,0,0,1.87.51v.22c-1.72,1.91-.84,7.2,2.2,12.46C34,48.36,38.61,51.9,41,50.52c1.74-1,1.82-4.35.45-8.31a19.27,19.27,0,0,0,2.23.67c1.14,4.35.61,8-1.68,9.37-3.35,1.93-9.2-1.93-13.06-8.63C25.74,38.09,24.9,32.34,26.6,29.43Z"/></g><g id="Oval_163-4" data-name="Oval 163"><path id="path7_fill" data-name="path7 fill" class="cls-1" d="M28.73,31.58c-.74,2,.32,6.24,2.81,10.54,3,5.27,7.05,8.64,9,7.53a.49.49,0,0,0,.18-.68.51.51,0,0,0-.68-.19c-1.43.83-4.84-2.37-7.6-7.16-2-3.41-3.08-6.71-3-8.61A8.42,8.42,0,0,1,28.73,31.58Z"/></g></g></g><g id="two_bans-3" data-name="two bans"><g id="one_ban-5" data-name="one ban"><g id="Oval_137-5" data-name="Oval 137"><path id="path8_fill" data-name="path8 fill" class="cls-1" d="M28.5,26.06c0-3.37-3.59-7.92-9.12-11.12-6.7-3.87-13.7-4.29-15.63-.94-1.32,2.29.07,5.75,3.23,9a22.92,22.92,0,0,1,2.27-.54C6.08,19.67,4.48,16.74,5.48,15c1.38-2.39,7.16-1.64,12.9,1.67,5.26,3,8.67,7.18,8.13,9.69l.11.19A2,2,0,0,1,28.5,26.06Z"/></g><g id="Oval_163-5" data-name="Oval 163"><path id="path9_fill" data-name="path9 fill" class="cls-1" d="M17.38,18.4C12.59,15.64,8,14.57,7.22,16a.51.51,0,0,1-.69.18.49.49,0,0,1-.18-.68c1.1-1.91,6.26-1,11.53,2,4.3,2.48,7.34,5.62,7.7,7.73a7.41,7.41,0,0,0-1.27-.92C23.4,22.67,20.79,20.37,17.38,18.4Z"/></g></g><g id="one_ban-6" data-name="one ban"><g id="Oval_137-6" data-name="Oval 137"><path id="path10_fill" data-name="path10 fill" class="cls-1" d="M27.5,29.94a2,2,0,0,0,1.88-.49l.11.19c-.54,2.51,2.87,6.65,8.13,9.69,5.74,3.31,11.52,4.06,12.9,1.67,1-1.74-.6-4.67-3.77-7.41A22.92,22.92,0,0,0,49,33.05c3.16,3.2,4.55,6.66,3.23,9-1.93,3.35-8.93,2.93-15.63-.94C31.09,37.86,27.49,33.31,27.5,29.94Z"/></g><g id="Oval_163-6" data-name="Oval 163"><path id="path11_fill" data-name="path11 fill" class="cls-1" d="M30.42,30.73c.36,2.11,3.4,5.25,7.7,7.73,5.27,3,10.43,3.95,11.53,2a.49.49,0,0,0-.18-.68.51.51,0,0,0-.69.18c-.82,1.43-5.37.36-10.16-2.4-3.41-2-6-4.27-6.93-6A7.41,7.41,0,0,1,30.42,30.73Z"/></g></g></g><g id="two_bans-4" data-name="two bans"><g id="one_ban-7" data-name="one ban"><g id="Oval_137-7" data-name="Oval 137"><path id="path12_fill" data-name="path12 fill" class="cls-1" d="M26.08,27.44a2,2,0,0,1,1.38-1.37C25.79,23.14,20.4,21,14,21,6.27,21,0,24.13,0,28c0,2.65,2.94,5,7.27,6.14A21.69,21.69,0,0,1,9,32.54C4.85,31.75,2,30,2,28c0-2.76,5.37-5,12-5,6.08,0,11.1,1.88,11.89,4.33A1.18,1.18,0,0,1,26.08,27.44Z"/></g><g id="Oval_163-7" data-name="Oval 163"><path id="path13_fill" data-name="path13 fill" class="cls-1" d="M14,25C8.48,25,4,26.34,4,28a.5.5,0,0,1-1,0c0-2.21,4.92-4,11-4,5,0,9.17,1.2,10.53,2.85A7.43,7.43,0,0,0,23,26.68C21.35,25.68,17.94,25,14,25Z"/></g></g><g id="one_ban-8" data-name="one ban"><g id="Oval_137-8" data-name="Oval 137"><path id="path14_fill" data-name="path14 fill" class="cls-1" d="M28.54,29.93C30.21,32.86,35.6,35,42,35c7.73,0,14-3.13,14-7,0-2.65-2.94-4.95-7.27-6.14A21.69,21.69,0,0,1,47,23.46c4.11.79,7,2.53,7,4.54,0,2.76-5.37,5-12,5-6.08,0-11.1-1.88-11.89-4.33a1.18,1.18,0,0,1-.19-.11A2,2,0,0,1,28.54,29.93Z"/></g><g id="Oval_163-8" data-name="Oval 163"><path id="path15_fill" data-name="path15 fill" class="cls-1" d="M31.47,29.15C32.83,30.8,37,32,42,32c6.08,0,11-1.79,11-4a.5.5,0,0,0-1,0c0,1.66-4.48,3-10,3-3.94,0-7.35-.68-9-1.68A7.43,7.43,0,0,1,31.47,29.15Z"/></g></g></g><g id="two_bans-5" data-name="two bans"><g id="one_ban-9" data-name="one ban"><g id="Oval_137-9" data-name="Oval 137"><path id="path16_fill" data-name="path16 fill" class="cls-1" d="M29.94,28.5c3.37,0,7.92-3.59,11.12-9.12,3.87-6.7,4.29-13.7.94-15.63-2.29-1.32-5.75.07-9,3.23a22.92,22.92,0,0,1,.54,2.27C36.33,6.08,39.26,4.48,41,5.48c2.39,1.38,1.64,7.16-1.67,12.9-3,5.26-7.18,8.67-9.69,8.13l-.19.11A2,2,0,0,1,29.94,28.5Z"/></g><g id="Oval_163-9" data-name="Oval 163"><path id="path17_fill" data-name="path17 fill" class="cls-1" d="M30.73,25.58c2.11-.36,5.25-3.4,7.73-7.7,3-5.27,3.95-10.43,2-11.53a.49.49,0,0,0-.68.18.51.51,0,0,0,.18.69c1.43.82.36,5.37-2.4,10.16-2,3.41-4.27,6-6,6.93A7.41,7.41,0,0,1,30.73,25.58Z"/></g></g><g id="one_ban-10" data-name="one ban"><g id="Oval_137-10" data-name="Oval 137"><path id="path18_fill" data-name="path18 fill" class="cls-1" d="M26.06,27.5a2,2,0,0,0,.49,1.88l-.19.11c-2.51-.54-6.65,2.87-9.69,8.13-3.31,5.74-4.06,11.52-1.67,12.9,1.74,1,4.67-.6,7.41-3.77A22.92,22.92,0,0,0,23,49c-3.2,3.16-6.66,4.55-8.95,3.23-3.35-1.93-2.93-8.93.94-15.63C18.13,31.09,22.69,27.49,26.06,27.5Z"/></g><g id="Oval_163-10" data-name="Oval 163"><path id="path19_fill" data-name="path19 fill" class="cls-1" d="M25.27,30.42c-2.11.36-5.25,3.4-7.73,7.7-3,5.27-3.95,10.43-2,11.53a.49.49,0,0,0,.68-.18.51.51,0,0,0-.18-.69c-1.43-.82-.36-5.37,2.4-10.16,2-3.41,4.27-6,6-6.93A7.41,7.41,0,0,1,25.27,30.42Z"/></g></g></g><g id="two_bans-6" data-name="two bans"><g id="one_ban-11" data-name="one ban"><g id="Oval_137-11" data-name="Oval 137"><path id="path20_fill" data-name="path20 fill" class="cls-1" d="M29.43,29.4c2.91,1.7,8.66.86,14.19-2.34,6.7-3.86,10.56-9.71,8.63-13.06-1.32-2.29-5-2.82-9.36-1.68a21.58,21.58,0,0,1-.68,2.23c4-1.37,7.3-1.29,8.31.45,1.38,2.39-2.16,7-7.9,10.33-5.26,3-10.55,3.92-12.46,2.2h-.22A2,2,0,0,1,29.43,29.4Z"/></g><g id="Oval_163-11" data-name="Oval 163"><path id="path21_fill" data-name="path21 fill" class="cls-1" d="M31.58,27.27c2,.74,6.24-.32,10.54-2.81,5.27-3,8.64-7,7.53-9a.49.49,0,0,0-.68-.18.51.51,0,0,0-.19.68c.83,1.43-2.37,4.84-7.16,7.6-3.41,2-6.71,3.08-8.61,3A8.42,8.42,0,0,1,31.58,27.27Z"/></g></g><g id="one_ban-12" data-name="one ban"><g id="Oval_137-12" data-name="Oval 137"><path id="path22_fill" data-name="path22 fill" class="cls-1" d="M26.57,26.6c-2.91-1.7-8.66-.86-14.19,2.34C5.68,32.8,1.82,38.65,3.75,42c1.32,2.29,5,2.82,9.36,1.68a21.58,21.58,0,0,1,.68-2.23c-4,1.37-7.3,1.29-8.31-.45-1.38-2.39,2.16-7,7.9-10.33,5.26-3,10.55-3.92,12.46-2.2h.22A2,2,0,0,1,26.57,26.6Z"/></g><g id="Oval_163-12" data-name="Oval 163"><path id="path23_fill" data-name="path23 fill" class="cls-1" d="M24.42,28.73c-2-.74-6.24.32-10.54,2.81-5.27,3-8.64,7.05-7.53,9a.49.49,0,0,0,.68.18A.51.51,0,0,0,7.22,40c-.83-1.43,2.37-4.84,7.16-7.6,3.41-2,6.71-3.08,8.61-3A8.42,8.42,0,0,1,24.42,28.73Z"/></g></g></g><g id="Oval_180" data-name="Oval 180"><path id="path24_fill" data-name="path24 fill" class="cls-1" d="M28,29a1,1,0,1,0-1-1A1,1,0,0,0,28,29Z"/></g></svg>